<svg xmlns="http://www.w3.org/2000/svg" xmlns:xlink="http://www.w3.org/1999/xlink"><symbol id="arrow-dawn" viewBox="0 0 16 16">
<path d="M8 1V15" stroke="white" stroke-width="2" stroke-linecap="round" stroke-linejoin="round"/>
<path d="M15 8L8 15L1 8" stroke="white" stroke-width="2" stroke-linecap="round" stroke-linejoin="round"/>
</symbol><symbol id="arrow-right" viewBox="0 0 8 12">
<path fill-rule="evenodd" clip-rule="evenodd" d="M0 1.4L4.6 6L0 10.6L1.4 12L7.4 6L1.4 0L0 1.4Z" fill="#2C2E3F" fill-opacity="0.5"/>
</symbol><symbol id="complex-checkmark" viewBox="0 0 22 22">
<path fill-rule="evenodd" clip-rule="evenodd" d="M17.6138 5.21059C18.0498 5.54958 18.1285 6.17784 17.7895 6.61385L10.0145 16.6138C9.84138 16.8365 9.58223 16.9758 9.30094 16.9972C9.01966 17.0186 8.74242 16.9202 8.53757 16.7262L4.3125 12.7262C3.91144 12.3465 3.89412 11.7136 4.27382 11.3126C4.65351 10.9115 5.28644 10.8942 5.6875 11.2739L9.11216 14.5161L16.2105 5.38625C16.5495 4.95024 17.1778 4.87159 17.6138 5.21059Z" fill="#141517"/>
</symbol><symbol id="econom-checkmark" viewBox="0 0 14 12">
<path fill-rule="evenodd" clip-rule="evenodd" d="M13.6138 0.210585C14.0498 0.549578 14.1285 1.17784 13.7895 1.61385L6.01453 11.6138C5.84138 11.8365 5.58223 11.9758 5.30094 11.9972C5.01966 12.0186 4.74242 11.9202 4.53757 11.7262L0.312502 7.72623C-0.0885582 7.34653 -0.105878 6.71361 0.273818 6.31255C0.653514 5.91149 1.28644 5.89417 1.6875 6.27386L5.11216 9.51608L12.2105 0.386246C12.5495 -0.0497617 13.1778 -0.128408 13.6138 0.210585Z" fill="#FE7865"/>
</symbol><symbol id="footer-email" viewBox="0 0 26 20">
<path d="M24.2273 0H1.77273C0.768182 0 0 0.764706 0 1.76471V18.2353C0 19.2353 0.768182 20 1.77273 20H24.2273C25.2318 20 26 19.2353 26 18.2353V1.76471C26 0.764706 25.2318 0 24.2273 0ZM24.2273 17L19.5591 12.3529C19.2045 12 18.6727 12 18.3182 12.3529C17.9636 12.7059 17.9636 13.2353 18.3182 13.5882L22.9864 18.2353H3.01362L7.68182 13.5882C8.03636 13.2353 8.03636 12.7059 7.68182 12.3529C7.32727 12 6.79547 12 6.44092 12.3529L1.77273 17V5.70585L12.4091 13.7059C12.5864 13.8236 12.7636 13.8823 12.9409 13.8823C13.1182 13.8823 13.2954 13.8236 13.4727 13.7059L24.2273 5.70585V17ZM24.2273 1.76471V3.4706L12.9409 11.8235L1.77273 3.4706V1.76471H24.2273Z" fill="#D7D9DF"/>
</symbol><symbol id="footer-phone" viewBox="0 0 30 30">
<path d="M7.39635 8.62432C7.31179 7.42623 7.57753 6.24606 8.28114 5.29684C8.89115 4.43632 9.68536 3.96636 10.6426 3.69172C11.4489 3.4525 11.9774 3.74561 12.2099 4.64204C12.5421 5.98224 13.0162 7.3225 13.1884 8.73361C13.2427 9.35485 12.8411 10.2332 12.4062 10.6856C11.3161 11.7589 11.5426 12.5399 12.37 14.1643C12.6267 14.6881 13.0344 15.5934 13.8286 16.7919C14.656 17.9992 15.0939 18.6472 16.1569 18.0975C17.3376 17.5035 18.1983 17.8855 19.0891 18.8444C19.6931 19.5369 20.3574 20.1318 20.9614 20.8243C21.8341 21.8542 21.7949 22.5641 21.1124 23.2915C19.8833 24.6309 17.854 25.0736 16.3441 24.1766C15.5106 23.6881 14.6802 23.0487 14.0188 22.303C11.1047 18.9825 9.00291 15.1212 7.73759 10.7632C7.53526 10.0265 7.44165 9.28104 7.39635 8.62432Z" stroke="#D7D9DF" stroke-width="2" stroke-miterlimit="10"/>
</symbol><symbol id="menu-close" viewBox="0 0 50 52">
<rect width="50" height="52" fill="white"/>
<path d="M14 37.7213L36 15M36 37.7213L14 15" stroke="#141517" stroke-opacity="0.2" stroke-linecap="round" stroke-linejoin="round"/>
</symbol><symbol id="menu" viewBox="0 0 30 30">
<path fill-rule="evenodd" clip-rule="evenodd" d="M3.75 21H26.25V20H3.75V21ZM3.75 14.75H26.25V13.75H3.75V14.75ZM3.75 7.5V8.5H26.25V7.5H3.75Z" fill="white"/>
</symbol><symbol id="phone-price" viewBox="0 0 30 30">
<path d="M7.39635 8.62432C7.31179 7.42623 7.57753 6.24606 8.28114 5.29684C8.89115 4.43632 9.68536 3.96636 10.6426 3.69172C11.4489 3.4525 11.9774 3.74561 12.2099 4.64204C12.5421 5.98224 13.0162 7.3225 13.1884 8.73361C13.2427 9.35485 12.8411 10.2332 12.4062 10.6856C11.3161 11.7589 11.5426 12.5399 12.37 14.1643C12.6267 14.6881 13.0344 15.5934 13.8286 16.7919C14.656 17.9992 15.0939 18.6472 16.1569 18.0975C17.3376 17.5035 18.1983 17.8855 19.0891 18.8444C19.6931 19.5369 20.3574 20.1318 20.9614 20.8243C21.8341 21.8542 21.7949 22.5641 21.1124 23.2915C19.8833 24.6309 17.854 25.0736 16.3441 24.1766C15.5106 23.6881 14.6802 23.0487 14.0188 22.303C11.1047 18.9825 9.00291 15.1212 7.73759 10.7632C7.53526 10.0265 7.44165 9.28104 7.39635 8.62432Z" stroke="#FE7865" stroke-width="2" stroke-miterlimit="10"/>
</symbol><symbol id="phone" viewBox="0 0 30 30">
<path d="M7.39635 8.62432C7.31179 7.42623 7.57753 6.24606 8.28114 5.29684C8.89115 4.43632 9.68536 3.96636 10.6426 3.69172C11.4489 3.4525 11.9774 3.74561 12.2099 4.64204C12.5421 5.98224 13.0162 7.3225 13.1884 8.73361C13.2427 9.35485 12.8411 10.2332 12.4062 10.6856C11.3161 11.7589 11.5426 12.5399 12.37 14.1643C12.6267 14.6881 13.0344 15.5934 13.8286 16.7919C14.656 17.9992 15.0939 18.6472 16.1569 18.0975C17.3376 17.5035 18.1983 17.8855 19.0891 18.8444C19.6931 19.5369 20.3574 20.1318 20.9614 20.8243C21.8341 21.8542 21.7949 22.5641 21.1124 23.2915C19.8833 24.6309 17.854 25.0736 16.3441 24.1766C15.5106 23.6881 14.6802 23.0487 14.0188 22.303C11.1047 18.9825 9.00291 15.1212 7.73759 10.7632C7.53526 10.0265 7.44165 9.28104 7.39635 8.62432Z" stroke="#141517" stroke-width="2" stroke-miterlimit="10"/>
</symbol><symbol id="price-close" viewBox="0 0 24 24">
<path d="M1 23L23 1M23 23L1 1" stroke="#141517" stroke-opacity="0.2" stroke-linecap="round" stroke-linejoin="round"/>
</symbol><symbol id="way-tablet" viewBox="0 0 44 18">
<path d="M21.4021 0.51123L17.0223 13.6865H13.6943L10.7489 4.76497L7.70783 13.6865H4.39901L0 0.51123H3.21319L6.23512 9.77158L9.39093 0.51123H12.2599L15.32 9.84687L18.4376 0.51123H21.4021Z" fill="#141517"/>
<path d="M26.3061 3.40979C27.8999 3.40979 29.124 3.78623 29.9783 4.53911C30.8326 5.27943 31.2597 6.40247 31.2597 7.90822V13.6865H28.4673V12.4255C27.9063 13.3666 26.8607 13.8371 25.3306 13.8371C24.5401 13.8371 23.8515 13.7053 23.265 13.4418C22.6912 13.1783 22.2513 12.8144 21.9453 12.3502C21.6393 11.8859 21.4863 11.3589 21.4863 10.7691C21.4863 9.82805 21.8433 9.08772 22.5573 8.54816C23.2841 8.0086 24.3998 7.73882 25.9044 7.73882H28.276C28.276 7.09888 28.0784 6.60951 27.6831 6.27072C27.2879 5.91938 26.6949 5.7437 25.9044 5.7437C25.3561 5.7437 24.8142 5.83154 24.2787 6.00721C23.7559 6.17033 23.3096 6.3962 22.9399 6.6848L21.8688 4.63322C22.4298 4.24423 23.0992 3.94308 23.877 3.72977C24.6676 3.51645 25.4773 3.40979 26.3061 3.40979ZM26.0765 11.8608C26.5866 11.8608 27.0392 11.7479 27.4345 11.522C27.8298 11.2836 28.1103 10.9385 28.276 10.4868V9.45161H26.2295C25.0055 9.45161 24.3934 9.84687 24.3934 10.6374C24.3934 11.0138 24.5401 11.315 24.8333 11.5408C25.1394 11.7541 25.5538 11.8608 26.0765 11.8608Z" fill="#141517"/>
<path d="M43.9867 3.56037L39.339 14.3076C38.8672 15.4746 38.2807 16.2965 37.5794 16.7733C36.8909 17.2501 36.0557 17.4885 35.0739 17.4885C34.5384 17.4885 34.0092 17.407 33.4864 17.2439C32.9636 17.0807 32.5365 16.8549 32.205 16.5663L33.2952 14.477C33.5247 14.6778 33.7861 14.8347 34.0793 14.9476C34.3853 15.0605 34.685 15.117 34.9783 15.117C35.3863 15.117 35.7178 15.0166 35.9728 14.8158C36.2278 14.6276 36.4573 14.3076 36.6614 13.8559L36.6996 13.7618L32.2432 3.56037H35.3225L38.2106 10.4303L41.1177 3.56037H43.9867Z" fill="#141517"/>
<path d="M44 3.55957L39.3523 14.3068C38.8805 15.4738 38.294 16.2957 37.5927 16.7725C36.9042 17.2493 36.069 17.4877 35.0872 17.4877C34.5516 17.4877 34.0225 17.4062 33.4997 17.2431C32.9769 17.0799 32.5498 16.8541 32.2183 16.5655L33.3084 14.4762C33.538 14.677 33.7994 14.8339 34.0926 14.9468C34.3986 15.0597 34.6983 15.1162 34.9916 15.1162C35.3996 15.1162 35.7311 15.0158 35.9861 14.815C36.2411 14.6268 36.4706 14.3068 36.6747 13.8551L36.7129 13.761L38.2239 10.4295L41.131 3.55957H44Z" fill="#FE7865"/>
</symbol><symbol id="way" viewBox="0 0 58 22">
<path d="M27.7339 0L22.0582 17.0732H17.7457L13.9289 5.51219L9.98817 17.0732H5.70045L0 0H4.1638L8.07976 12L12.1692 0H15.8869L19.8524 12.0976L23.8923 0H27.7339Z" fill="#141517"/>
<path d="M34.0886 3.7561C36.154 3.7561 37.7402 4.2439 38.8473 5.21951C39.9543 6.17886 40.5078 7.63414 40.5078 9.58536V17.0732H36.8893V15.439C36.1623 16.6585 34.8074 17.2683 32.8246 17.2683C31.8002 17.2683 30.9079 17.0976 30.1479 16.7561C29.4043 16.4146 28.8343 15.9431 28.4378 15.3415C28.0412 14.7398 27.8429 14.0569 27.8429 13.2927C27.8429 12.0732 28.3056 11.1138 29.2309 10.4146C30.1727 9.71545 31.6184 9.36585 33.5681 9.36585H36.6414C36.6414 8.53658 36.3853 7.90244 35.8731 7.46342C35.3609 7.00813 34.5926 6.78049 33.5681 6.78049C32.8577 6.78049 32.1554 6.89431 31.4615 7.12195C30.784 7.33333 30.2057 7.62602 29.7265 8L28.3386 5.34146C29.0656 4.8374 29.9331 4.44715 30.941 4.17073C31.9654 3.89431 33.0146 3.7561 34.0886 3.7561ZM33.7912 14.7073C34.4521 14.7073 35.0387 14.561 35.5509 14.2683C36.0631 13.9593 36.4266 13.5122 36.6414 12.9268V11.5854H33.9895C32.4033 11.5854 31.6102 12.0976 31.6102 13.122C31.6102 13.6098 31.8002 14 32.1802 14.2927C32.5768 14.5691 33.1138 14.7073 33.7912 14.7073Z" fill="#141517"/>
<path d="M57 3.95122L50.9774 17.878C50.366 19.3902 49.6059 20.4553 48.6972 21.0732C47.8049 21.6911 46.7227 22 45.4504 22C44.7564 22 44.0707 21.8943 43.3933 21.6829C42.7158 21.4715 42.1623 21.1789 41.7327 20.8049L43.1454 18.0976C43.4429 18.3577 43.7816 18.561 44.1616 18.7073C44.5582 18.8537 44.9465 18.9268 45.3265 18.9268C45.8552 18.9268 46.2848 18.7967 46.6153 18.5366C46.9457 18.2927 47.2432 17.878 47.5075 17.2927L47.5571 17.1707L41.7823 3.95122H45.7726L49.5151 12.8537L53.2823 3.95122H57Z" fill="#141517"/>
<path d="M57.0173 3.9502L50.9946 17.877C50.3833 19.3892 49.6232 20.4543 48.7145 21.0721C47.8222 21.69 46.74 21.999 45.4677 21.999C44.7737 21.999 44.088 21.8933 43.4106 21.6819C42.7331 21.4705 42.1796 21.1778 41.75 20.8039L43.1627 18.0965C43.4601 18.3567 43.7989 18.5599 44.1789 18.7063C44.5754 18.8526 44.9637 18.9258 45.3438 18.9258C45.8725 18.9258 46.3021 18.7957 46.6326 18.5356C46.963 18.2917 47.2604 17.877 47.5248 17.2917L47.5744 17.1697L49.5323 12.8526L53.2996 3.9502H57.0173Z" fill="#FE7865"/>
</symbol></svg>